Coordinates
version=1
nRows=32
nColumns=22
inDegrees=yes

Units are S.I. units (second, meters, Newtons, ...)
If the header above contains a line with 'inDegrees', this indicates whether rotational values are in degrees (yes) or radians (no).

endheader
time	pelvis_tilt	pelvis_list	pelvis_rotation	pelvis_tx	pelvis_ty	pelvis_tz	hip_flexion_r	hip_adduction_r	hip_rotation_r	knee_angle_r	ankle_angle_r	subtalar_angle_r	hip_flexion_l	hip_adduction_l	hip_rotation_l	knee_angle_l	ankle_angle_l	subtalar_angle_l	lumbar_extension	lumbar_bending	lumbar_rotation
      2.89000000	     -0.90383463	     -0.04275650	    -24.63804433	      0.99363780	      0.91436543	      0.32692802	     24.98986533	     -1.06494905	     -1.59401342	    -78.77260272	     21.77969256	     -2.02680383	     41.03122930	      0.17454780	     -4.19289446	    -45.83924213	     10.79422368	     -0.60454925	     -5.16787854	      1.26783288	     11.66458355
      2.90000000	     -0.60211064	      0.39642275	    -24.70267372	      1.00309169	      0.91179615	      0.32928182	     26.34278730	     -1.88713994	     -1.41134885	    -80.18429133	     22.34809720	     -2.90434986	     41.17226867	      0.68092723	     -4.61777791	    -47.38239703	     11.87542964	     -0.87299606	     -5.46904790	      0.70212303	     11.20408542
      2.91000000	     -0.40007808	      0.73273095	    -24.83816817	      1.01195331	      0.91004388	      0.33161681	     27.74817750	     -2.50744485	     -1.24317637	    -81.18618593	     22.75825529	     -4.00016842	     41.21727518	      1.00962027	     -5.02274744	    -48.62165721	     12.87026093	     -1.07901343	     -5.73708317	      0.30901375	     10.83906181
      2.92000000	     -0.23283331	      1.09155887	    -25.06253789	      1.02025584	      0.90911598	      0.33395652	     29.19569397	     -3.05389393	     -0.99689227	    -81.81153391	     23.13353491	     -4.57594142	     41.12290414	      1.28803386	     -5.49119608	    -49.50063279	     13.68483094	     -1.12041966	     -5.97137582	     -0.08441888	     10.51809802
      2.93000000	     -0.14630013	      1.39563445	    -25.32037669	      1.02806490	      0.90893085	      0.33626743	     30.63699691	     -3.45276748	     -0.78519699	    -82.01698989	     23.39972412	     -5.11551595	     40.93403789	      1.48214285	     -5.91095436	    -50.07909139	     14.39903856	     -1.14668396	     -6.15062208	     -0.37096968	     10.20924810
      2.94000000	     -0.11524764	      1.65514475	    -25.57257009	      1.03543841	      0.90949090	      0.33852664	     32.01462750	     -3.74144996	     -0.63633321	    -81.80330464	     23.60246509	     -5.49819068	     40.63790366	      1.64214804	     -6.25477059	    -50.36813141	     15.00814461	     -1.16693222	     -6.29673228	     -0.57820928	      9.86786190
      2.95000000	     -0.13912749	      1.86778703	    -25.78518972	      1.04242025	      0.91074487	      0.34071489	     33.29494223	     -3.93413213	     -0.57636930	    -81.18333958	     23.77225149	     -5.72565483	     40.25315412	      1.79091305	     -6.48455616	    -50.39926491	     15.50359548	     -1.19233291	     -6.41204018	     -0.70691695	      9.46016995
      2.96000000	     -0.19737810	      1.99721626	    -25.93606406	      1.04908644	      0.91271948	      0.34284226	     34.39932404	     -4.03020211	     -0.64507615	    -80.15602672	     23.94854405	     -5.77513912	     39.75841080	      1.91175505	     -6.58953807	    -50.20592713	     15.92415743	     -1.20712182	     -6.53386541	     -0.73073685	      8.99493436
      2.97000000	     -0.32751774	      2.13582646	    -26.02261568	      1.05545215	      0.91520522	      0.34485254	     35.41846433	     -4.10176506	     -0.79266482	    -78.78529576	     24.15841794	     -5.77234247	     39.24975118	      2.08107674	     -6.57071557	    -49.80644495	     16.16371060	     -1.23710273	     -6.57835839	     -0.72251915	      8.46298056
      2.98000000	     -0.49733584	      2.21185081	    -26.03632252	      1.06155770	      0.91824345	      0.34685696	     36.25067690	     -4.10931266	     -1.06301856	    -77.07667479	     24.40488457	     -5.69928912	     38.68149918	      2.21765801	     -6.46489015	    -49.24898955	     16.33654791	     -1.25909181	     -6.61259219	     -0.64356326	      7.88667739
      2.99000000	     -0.69749192	      2.20853706	    -25.95934593	      1.06747129	      0.92180500	      0.34874759	     36.86751245	     -4.07295470	     -1.47268812	    -75.06311501	     24.65953653	     -5.53899648	     38.04922692	      2.34722523	     -6.19994365	    -48.55180566	     16.36068607	     -1.28624952	     -6.65624522	     -0.46102914	      7.26470619
      3.00000000	     -0.88948681	      2.10441568	    -25.84255218	      1.07317128	      0.92588027	      0.35068076	     37.22632782	     -3.94850924	     -1.96521053	    -72.78724632	     24.82852061	     -5.24349571	     37.31428403	      2.40567261	     -5.86352732	    -47.74448846	     16.32148830	     -1.32029121	     -6.75738653	     -0.19102578	      6.64717288
      3.01000000	     -1.09940366	      1.97505069	    -25.68373074	      1.07872659	      0.93026403	      0.35264285	     37.40022080	     -3.80129315	     -2.51172270	    -70.31193576	     24.97272299	     -4.93046017	     36.54148985	      2.44552637	     -5.48476429	    -46.83482370	     16.22016735	     -1.31890726	     -6.83440325	      0.09927664	      6.05309779
      3.02000000	     -1.30964785	      1.79791508	    -25.49903030	      1.08413157	      0.93491518	      0.35468227	     37.36777564	     -3.59808005	     -3.08468287	    -67.67713603	     24.99769873	     -4.53867176	     35.72026214	      2.43818865	     -5.07351449	    -45.85590881	     16.04690685	     -1.29054491	     -6.91411255	      0.41854932	      5.48749760
      3.03000000	     -1.52195033	      1.59089543	    -25.30333552	      1.08939503	      0.93972020	      0.35680478	     37.15804017	     -3.33858559	     -3.64162731	    -64.93507591	     24.84048061	     -4.03969103	     34.87152774	      2.38513899	     -4.65713453	    -44.82821363	     15.81374018	     -1.23019908	     -6.98145990	      0.75350860	      4.95872601
      3.04000000	     -1.74476457	      1.37300645	    -25.11051434	      1.09450418	      0.94454955	      0.35905433	     36.80930119	     -3.01856307	     -4.14340524	    -62.13656767	     24.46859132	     -3.42398399	     34.02272338	      2.28630952	     -4.25408843	    -43.77276859	     15.54615612	     -1.13318612	     -7.01308406	      1.07749209	      4.47473999
      3.05000000	     -1.98201252	      1.16371032	    -24.93203568	      1.09945232	      0.94928071	      0.36143920	     36.35887504	     -2.64060988	     -4.54512279	    -59.33538054	     23.87061303	     -2.68050679	     33.19866460	      2.14917338	     -3.88574947	    -42.71059315	     15.25617336	     -0.99696608	     -6.99398009	      1.37303295	      4.03696412
      3.06000000	     -2.27529930	      0.95306161	    -24.74913107	      1.10426119	      0.95375308	      0.36393081	     35.85380818	     -2.18981324	     -4.86253871	    -56.56393797	     23.05022031	     -1.99396659	     32.45622624	      1.96155565	     -3.51428533	    -41.67941130	     14.98438163	     -0.86798874	     -6.87968761	      1.67361253	      3.63710369
      3.07000000	     -2.51595665	      0.80606584	    -24.61638736	      1.10896461	      0.95804427	      0.36655989	     35.26166334	     -1.74873484	     -4.98218309	    -53.90212408	     22.09156384	     -0.91023725	     31.68502043	      1.80220399	     -3.23607805	    -40.62884385	     14.69979662	     -0.64367680	     -6.75573593	      1.85468815	      3.35348632
      3.08000000	     -2.79900749	      0.66988767	    -24.47995084	      1.11356673	      0.96194273	      0.36926900	     34.64807538	     -1.26528751	     -4.99838979	    -51.35881297	     20.97683174	      0.08547814	     31.00006286	      1.60856921	     -2.98247315	    -39.63580856	     14.45990505	     -0.44171527	     -6.54506610	      2.02817577	      3.09305068
      3.09000000	     -3.07854587	      0.56775805	    -24.35764231	      1.11811249	      0.96546683	      0.37205405	     34.00111669	     -0.79299778	     -4.90706236	    -48.98031442	     19.78342900	      1.07913179	     30.35254065	      1.41952634	     -2.77614388	    -38.68225024	     14.26325455	     -0.23466438	     -6.28227087	      2.15057748	      2.88338498
      3.10000000	     -3.37316730	      0.47292448	    -24.23734984	      1.12259860	      0.96855203	      0.37489518	     33.33717997	     -0.31401846	     -4.75406356	    -46.78424322	     18.54829727	      1.80343524	     29.76818767	      1.20873187	     -2.60848629	    -37.80269942	     14.13491717	     -0.08145565	     -5.96572816	      2.26452948	      2.70338435
      3.11000000	     -3.59991041	      0.44915123	    -24.10030262	      1.12710280	      0.97128135	      0.37769874	     32.63580400	      0.03959394	     -4.56624635	    -44.83607106	     17.37364924	      2.48726946	     29.15959450	      1.09548771	     -2.46911211	    -36.93448312	     14.04909310	      0.10133685	     -5.65372120	      2.26646727	      2.55501375
      3.12000000	     -3.83059062	      0.43540305	    -23.94409802	      1.13159756	      0.97353979	      0.38049255	     31.93671597	      0.36950112	     -4.36142717	    -43.11629667	     16.29943139	      2.73541235	     28.61638187	      0.98242114	     -2.36398078	    -36.16197217	     14.02829909	      0.19913392	     -5.30006177	      2.26401424	      2.37818428
      3.13000000	     -3.95454017	      0.45395868	    -23.75857769	      1.13617791	      0.97551572	      0.38319843	     31.15636859	      0.58557652	     -4.16701356	    -41.64686217	     15.44839353	      2.63034283	     27.99732972	      0.96641538	     -2.24100000	    -35.41532790	     14.09018692	      0.28685705	     -5.01454429	      2.18543962	      2.22226275
      3.14000000	     -4.01730199	      0.48621787	    -23.53979927	      1.14080549	      0.97714228	      0.38581147	     30.33826724	      0.73906978	     -3.96347215	    -40.41040689	     14.86084541	      2.18342254	     27.37111336	      0.99844578	     -2.13248764	    -34.74763886	     14.20588262	      0.31493476	     -4.76397920	      2.07881189	      2.01816498
      3.15000000	     -4.02659452	      0.57658096	    -23.31184689	      1.14546009	      0.97839888	      0.38831128	     29.53302799	      0.79665754	     -3.74297415	    -39.40902160	     14.58891535	      1.39019926	     26.74787105	      1.12386845	     -2.01280334	    -34.13235518	     14.38916887	      0.29817427	     -4.52498849	      1.90218725	      1.85981238
      3.16000000	     -3.97738023	      0.68512551	    -23.06344067	      1.15003938	      0.97935845	      0.39069829	     28.71723885	      0.79255989	     -3.52784640	    -38.58853160	     14.60894966	      0.59936058	     26.13136673	      1.29672509	     -1.90061436	    -33.60278819	     14.60223678	      0.26184844	     -4.34205655	      1.69675736	      1.64410453
      3.17000000	     -3.94702024	      0.80980515	    -22.84984592	      1.15441626	      0.97993762	      0.39304871	     27.98403365	      0.77875088	     -3.33291902	    -37.91281197	     14.84475112	     -0.31308938	     25.59884393	      1.46884275	     -1.78080822	    -33.16434293	     14.89443179	      0.20517679	     -4.14532825	      1.48927807	      1.52463814
      3.18000000	     -3.92510425	      0.94583743	    -22.65869495	      1.15853130	      0.98021526	      0.39532858	     27.32612649	      0.74481448	     -3.18146403	    -37.34468455	     15.25190703	     -1.15944461	     25.14932227	      1.63738945	     -1.67922757	    -32.82589480	     15.20956654	      0.14991887	     -3.96212942	      1.28834811	      1.41719804
      3.19000000	     -3.91455916	      1.09033726	    -22.50195584	      1.16235097	      0.98025171	      0.39756255	     26.75538334	      0.70107384	     -3.06957474	    -36.86953666	     15.73703132	     -1.91543920	     24.77776869	      1.79719655	     -1.58761506	    -32.57374462	     15.53392909	      0.09649866	     -3.79609433	      1.09377178	      1.33544885
      3.20000000	     -3.93405380	      1.21749710	    -22.39722644	      1.16588974	      0.98009402	      0.39978151	     26.27927073	      0.68843764	     -2.99038959	    -36.46856654	     16.23583719	     -2.63247902	     24.48653845	      1.90944021	     -1.51454715	    -32.40461635	     15.88738680	      0.03394093	     -3.63566480	      0.94114780	      1.32931388
